<?xml version="1.0" encoding="UTF-8" standalone="no"?>
<!-- Created with Inkscape (http://www.inkscape.org/) -->

<svg
   version="1.1"
   id="svg2"
   width="92"
   height="84"
   viewBox="0 0 92 84"
   sodipodi:docname="warning.eps"
   xmlns:inkscape="http://www.inkscape.org/namespaces/inkscape"
   xmlns:sodipodi="http://sodipodi.sourceforge.net/DTD/sodipodi-0.dtd"
   xmlns="http://www.w3.org/2000/svg"
   xmlns:svg="http://www.w3.org/2000/svg">
  <defs
     id="defs6" />
  <sodipodi:namedview
     id="namedview4"
     pagecolor="#ffffff"
     bordercolor="#000000"
     borderopacity="0.25"
     inkscape:showpageshadow="2"
     inkscape:pageopacity="0.0"
     inkscape:pagecheckerboard="0"
     inkscape:deskcolor="#d1d1d1" />
  <g
     id="g8"
     inkscape:groupmode="layer"
     inkscape:label="ink_ext_XXXXXX"
     transform="matrix(1.3333333,0,0,-1.3333333,0,84)">
    <g
       id="g10"
       transform="scale(0.1)">
      <path
         d="m 314.77,418.828 h 50.699 c 12.89,0 22.972,-11.918 21.64,-25.547 L 369.922,219.691 C 368.75,207.93 359.41,198.98 348.238,198.98 h -16.25 c -11.129,0 -20.508,8.95 -21.636,20.711 l -17.192,173.59 c -1.359,13.629 8.719,25.547 21.61,25.547 z M 371.52,138.32 c 0,-9.14 -2.809,-16.64 -8.43,-22.5 -5.629,-5.898 -13.289,-8.832 -22.969,-8.832 -4.769,0 -9.101,0.782 -12.973,2.313 -3.91,1.519 -7.187,3.711 -9.878,6.519 -2.739,2.809 -4.848,6.129 -6.329,10 -1.492,3.828 -2.23,7.969 -2.23,12.5 0,4.61 0.738,8.828 2.23,12.7 1.481,3.82 3.59,7.14 6.329,9.96 2.691,2.809 5.968,4.961 9.878,6.481 3.872,1.559 8.204,2.34 12.973,2.34 4.801,0 9.098,-0.781 13.008,-2.34 3.859,-1.52 7.141,-3.672 9.883,-6.481 2.687,-2.82 4.797,-6.14 6.289,-9.96 1.48,-3.872 2.219,-8.09 2.219,-12.7 z"
         style="fill:#e8833f;fill-opacity:1;fill-rule:nonzero;stroke:none"
         id="path12" />
      <path
         d="m 340.121,573.32 c -11.922,0 -21.992,-5.39 -26.961,-14.449 L 59.3398,97.2695 C 54.6914,88.8281 56.9492,81.5195 59.6484,76.9102 64.8008,68.2383 74.7305,63.0898 86.3281,63.0898 H 593.949 c 11.563,0 21.52,5.1485 26.641,13.8204 2.73,4.6093 5,11.9179 0.308,20.3593 L 367.07,558.871 c -4.961,9.059 -15.039,14.449 -26.949,14.449 z M 593.949,6.37109 H 86.3281 C 55,6.37109 26.0508,22.3398 10.8594,48.0898 -3.16016,71.8398 -3.62891,100.43 9.64844,124.609 L 263.48,586.211 c 14.84,26.988 44.219,43.789 76.641,43.789 32.418,0 61.789,-16.801 76.641,-43.789 L 670.59,124.609 C 683.871,100.43 683.441,71.8398 669.41,48.0898 654.18,22.3398 625.27,6.37109 593.949,6.37109 Z"
         style="fill:#e8833f;fill-opacity:1;fill-rule:nonzero;stroke:none"
         id="path14" />
    </g>
  </g>
</svg>